<svg width="31" height="31" viewBox="0 0 31 31" fill="none" xmlns="http://www.w3.org/2000/svg">
<path d="M23.25 30.5H7.75C3.4875 30.5 0 27.0125 0 22.75V7.25C0 2.9875 3.4875 -0.5 7.75 -0.5H23.25C27.5125 -0.5 31 2.9875 31 7.25V22.75C31 27.0125 27.5125 30.5 23.25 30.5Z" fill="#E2221F"/>
<path d="M12.918 14.2254C12.4013 13.7088 11.7555 13.7088 11.2388 14.2254C10.7222 14.7421 10.7222 15.3879 11.2388 15.9046L14.7263 19.3921C14.9847 19.6504 15.243 19.7796 15.5013 19.7796C15.7597 19.7796 16.018 19.6504 16.2763 19.3921L24.4138 10.0921C24.8013 9.57543 24.8013 8.80043 24.1555 8.41293C23.6388 8.02543 22.993 8.02543 22.6055 8.5421L15.5013 16.6796L12.918 14.2254Z" fill="white"/>
<path d="M25.963 13.838C25.3172 13.838 24.8005 14.3547 24.8005 15.0005C24.8005 20.038 20.6672 24.3005 15.5005 24.3005C10.3338 24.3005 6.32966 20.038 6.32966 15.0005C6.32966 12.5463 7.23382 10.2213 9.04216 8.54216C10.7213 6.73382 13.0463 5.70049 15.6297 5.70049C16.2755 5.70049 17.1797 5.82966 17.8255 5.95882C18.3422 6.21716 19.1172 5.82966 19.3755 5.18382C19.6338 4.53799 19.1172 4.02132 18.6005 3.76299H18.4713C17.438 3.50465 16.5338 3.37549 15.5005 3.37549C9.17132 3.37549 3.87549 8.54216 3.87549 15.0005C3.87549 17.9713 5.16715 21.0713 7.23382 23.138C9.42966 25.3338 12.2713 26.4963 15.3713 26.4963C21.7005 26.4963 26.9963 21.3297 26.9963 14.8713C27.1255 14.3547 26.4797 13.838 25.963 13.838Z" fill="white"/>
</svg>
